<svg
        xmlns="http://www.w3.org/2000/svg"
        viewBox="0 0 56 56"
>
    <defs>
        <linearGradient id="bg" x1="0%" y1="0%" x2="100%" y2="100%">
            <stop offset="0%" stop-color="#22c55e" />
            <stop offset="100%" stop-color="#059669" />
        </linearGradient>
    </defs>


    <rect
            width="56"
            height="56"
            rx="16"
            fill="url(#bg)"
    />

    <g
            transform="
      translate(28 28)
      scale(1.5)
      translate(-12 -12)
    "
            fill="none"
            stroke="white"
            stroke-width="2"
            stroke-linecap="round"
            stroke-linejoin="round"
    >
        <path d="M17 21a1 1 0 0 0 1-1v-5.35c0-.457.316-.844.727-1.041a4 4 0 0 0-2.134-7.589 5 5 0 0 0-9.186 0 4 4 0 0 0-2.134 7.588c.411.198.727.585.727 1.041V20a1 1 0 0 0 1 1Z" />
        <path d="M6 17h12" />
    </g>
</svg>